<svg width="17" height="17" viewBox="0 0 17 17" fill="none" xmlns="http://www.w3.org/2000/svg">
<path fill-rule="evenodd" clip-rule="evenodd" d="M7.64588 1.18422C7.9121 1.06282 8.20129 1 8.49389 1C8.78639 1 9.07547 1.06278 9.34162 1.18409L15.1909 3.84659C15.4309 3.95337 15.6348 4.12723 15.7783 4.34727C15.9226 4.56864 15.9995 4.82719 15.9995 5.09145C15.9995 5.3557 15.9226 5.61425 15.7783 5.83562C15.6348 6.05572 15.4307 6.22961 15.1908 6.33639L9.34892 8.99176C9.08271 9.11315 8.7933 9.17608 8.50071 9.17608C8.20803 9.17608 7.91877 9.11322 7.65249 8.99176L1.81032 6.32942C1.57047 6.22263 1.36654 6.0488 1.22311 5.82881C1.07879 5.60744 1.00195 5.34889 1.00195 5.08463C1.00195 4.82038 1.07879 4.56182 1.22311 4.34046C1.36658 4.12041 1.57057 3.94655 1.8105 3.83976L7.64588 1.18422Z" fill="#00A99D"/>
<path fill-rule="evenodd" clip-rule="evenodd" d="M1.06103 12.0624C1.21647 11.7198 1.62027 11.568 1.96293 11.7234L8.21172 14.5582C8.30048 14.5987 8.3969 14.6197 8.49446 14.6197C8.59202 14.6197 8.68844 14.5987 8.7772 14.5582L8.77847 14.5576L15.026 11.7234C15.3686 11.568 15.7724 11.7198 15.9279 12.0624C16.0833 12.4051 15.9316 12.8089 15.5889 12.9643L9.34268 15.7979C9.34245 15.7981 9.34222 15.7982 9.34199 15.7983C9.0759 15.9195 8.78688 15.9823 8.49446 15.9823C8.20204 15.9823 7.91302 15.9195 7.64693 15.7983C7.6467 15.7982 7.64647 15.7981 7.64624 15.7979L1.4 12.9643C1.05734 12.8089 0.905577 12.4051 1.06103 12.0624Z" fill="#00A99D"/>
<path fill-rule="evenodd" clip-rule="evenodd" d="M1.06103 8.65592C1.21647 8.31326 1.62027 8.1615 1.96293 8.31695L8.21172 11.1517C8.30048 11.1922 8.3969 11.2132 8.49446 11.2132C8.59202 11.2132 8.68844 11.1922 8.7772 11.1517L8.77847 11.1512L15.026 8.31695C15.3686 8.1615 15.7724 8.31326 15.9279 8.65592C16.0833 8.99858 15.9316 9.40238 15.5889 9.55783L9.34268 12.3915C9.34245 12.3916 9.34222 12.3917 9.34199 12.3918C9.0759 12.513 8.78688 12.5758 8.49446 12.5758C8.20204 12.5758 7.91302 12.513 7.64693 12.3918C7.6467 12.3917 7.64647 12.3916 7.64624 12.3915L1.4 9.55783C1.05734 9.40238 0.905577 8.99858 1.06103 8.65592Z" fill="#00A99D"/>
</svg>
