<svg width="17" height="17" viewBox="0 0 17 17" fill="none" xmlns="http://www.w3.org/2000/svg">
<path fill-rule="evenodd" clip-rule="evenodd" d="M1 8.71111C1 8.37416 1.30526 8.10101 1.68182 8.10101H5.77273C6.0007 8.10101 6.21358 8.20296 6.34003 8.37269L7.50126 9.93132H9.49874L10.66 8.37269C10.7864 8.20296 10.9993 8.10101 11.2273 8.10101H15.3182C15.6947 8.10101 16 8.37416 16 8.71111C16 9.04806 15.3766 10.9481 15 10.9481H11.274H10.5C10.3735 11.1178 10.0916 11.1515 9.86364 11.1515H7.13636C6.9084 11.1515 6.69551 11.0496 6.56906 10.8798H5.40783H1.68182C1.30526 10.8798 1 9.04806 1 8.71111Z" fill="#00ACFE"/>
<path fill-rule="evenodd" clip-rule="evenodd" d="M5.25455 1L11.7455 1C12.126 1.00023 12.4993 1.11919 12.8227 1.3435C13.1458 1.56762 13.4067 1.88803 13.576 2.26876L13.5765 2.26977L15.9278 8.52218C15.9753 8.62818 16 8.74509 16 8.86364V13.4394C16 14.0462 15.7845 14.9008 15.4009 15.3299C15.0173 15.759 14.497 16 13.9545 16H3.04545C2.50297 16 1.9827 15.759 1.5991 15.3299C1.2155 14.9008 1 14.0462 1 13.4394V8.86364C1 8.74509 1.02471 8.62818 1.07216 8.52218L3.4235 2.26977L3.424 2.26866C3.59335 1.88797 3.85421 1.5676 4.1773 1.3435C4.5007 1.11919 4.874 1.00023 5.25455 1ZM5.25478 2.52525C5.12797 2.52535 5.00371 2.56501 4.89595 2.63975C4.78814 2.71453 4.70113 2.82145 4.64468 2.94851L4.64375 2.9506L2.36364 9.0439L2.23577 9.70661C2.23577 9.90887 2.3076 10.1028 2.43547 10.2459C2.56334 10.3889 2.73676 10.4692 2.91759 10.4692H13.8267C14.0075 10.4692 14.1809 10.3889 14.3088 10.2459C14.4367 10.1028 14.5085 9.90887 14.5085 9.70661L14.6364 9.0439L12.3562 2.95059L12.3553 2.94851C12.2989 2.82145 12.2119 2.71452 12.1041 2.63975C11.9963 2.56501 11.872 2.52535 11.7452 2.52525H5.25478Z" fill="#00ACFE"/>
</svg>
