<svg width="17" height="17" viewBox="0 0 17 17" fill="none" xmlns="http://www.w3.org/2000/svg">
<path fill-rule="evenodd" clip-rule="evenodd" d="M15 4C15 3.63834 15 3.5 14.5 3C14 2 14.5 1.5 13.5 1L4.52778 2C3.85737 2 3.21442 2.25142 2.74037 2.69895C2.26632 3.14648 2 3.75346 2 4.38636L2 13.6136C2 14.2465 2.26632 14.8535 2.74037 15.301C3.21442 15.7486 3.85737 16 4.52778 16H13.5556C13.9386 16 14.306 15.8563 14.5769 15.6006C14.8478 15.3449 15 14.998 15 14.6364V4ZM13.5 11.5L4.52778 12.5909C4.24046 12.5909 3.96491 12.6986 3.76175 12.8904C3.55858 13.0822 3.44444 13.3424 3.44444 13.6136C3.44444 13.8849 3.55858 14.145 3.76175 14.3368C3.96491 14.5286 4.24046 14.6364 4.52778 14.6364H13.5556L13.5 11.5Z" fill="#00C458"/>
<path fill-rule="evenodd" clip-rule="evenodd" d="M10.856 5.03751C11.1282 5.3097 11.1282 5.75099 10.856 6.02318L8.06812 8.81105C7.79593 9.08324 7.35464 9.08324 7.08245 8.81105L5.68851 7.41712C5.41633 7.14493 5.41633 6.70363 5.68851 6.43145C5.9607 6.15927 6.40199 6.15927 6.67418 6.43145L7.57528 7.33256L9.87033 5.03751C10.1425 4.76533 10.5838 4.76533 10.856 5.03751Z" fill="white"/>
</svg>
