<svg width="17" height="17" viewBox="0 0 17 17" fill="none" xmlns="http://www.w3.org/2000/svg">
<path fill-rule="evenodd" clip-rule="evenodd" d="M1 2.5C1 1.74786 1.56562 1 2.425 1H14.575C15.4344 1 16 1.74786 16 2.5V4.75C16 5.50214 15.4344 6.25 14.575 6.25H2.425C1.56562 6.25 1 5.50214 1 4.75V2.5Z" fill="#CDC479"/>
<path fill-rule="evenodd" clip-rule="evenodd" d="M2.72222 5C3.12109 5 3.44444 5.35178 3.44444 5.78571V13.7637C3.44444 13.9188 3.50528 14.0817 3.63516 14.2121C3.76698 14.3445 3.9573 14.4286 4.16667 14.4286H12.8333C13.0427 14.4286 13.233 14.3445 13.3648 14.2121C13.4947 14.0817 13.5556 13.9188 13.5556 13.7637V5.78571C13.5556 5.35178 13.8789 5 14.2778 5C14.6766 5 15 5.35178 15 5.78571V13.7637C15 14.378 14.7565 14.9531 14.3446 15.3668C13.9346 15.7785 13.3901 16 12.8333 16H4.16667C3.60986 16 3.06537 15.7785 2.65542 15.3668C2.24353 14.9531 2 14.378 2 13.7637V5.78571C2 5.35178 2.32335 5 2.72222 5Z" fill="#CDC479"/>
<path fill-rule="evenodd" clip-rule="evenodd" d="M6.25 8.5C6.25 8.08579 6.58579 7.75 7 7.75H10C10.4142 7.75 10.75 8.08579 10.75 8.5C10.75 8.91421 10.4142 9.25 10 9.25H7C6.58579 9.25 6.25 8.91421 6.25 8.5Z" fill="#CDC479"/>
</svg>
