<svg width="17" height="17" viewBox="0 0 17 17" fill="none" xmlns="http://www.w3.org/2000/svg">
<path fill-rule="evenodd" clip-rule="evenodd" d="M8.5 1C8.75951 1 8.99652 1.15419 9.11139 1.39775L11.0597 5.52888L15.4168 6.19542C15.6735 6.23469 15.8867 6.42309 15.9667 6.68142C16.0468 6.93975 15.9798 7.22324 15.7939 7.41272L12.6417 10.6261L13.3856 15.1658C13.4295 15.4335 13.3243 15.7041 13.1144 15.8637C12.9044 16.0234 12.626 16.0444 12.3963 15.918L8.5 13.7734L4.60373 15.918C4.37401 16.0444 4.09563 16.0234 3.88565 15.8637C3.67566 15.7041 3.5705 15.4335 3.61437 15.1658L4.35829 10.6261L1.20611 7.41272C1.02024 7.22324 0.953231 6.93975 1.03326 6.68142C1.11329 6.42309 1.32648 6.23469 1.58323 6.19542L5.94028 5.52888L7.88861 1.39775C8.00348 1.15419 8.24049 1 8.5 1Z" fill="#FFD800"/>
</svg>
