<svg width="17" height="17" viewBox="0 0 17 17" fill="none" xmlns="http://www.w3.org/2000/svg">
<path fill-rule="evenodd" clip-rule="evenodd" d="M6.76587 2.59007C6.61334 2.75006 6.55 2.92629 6.55 3.04545V3.72729H10.45V3.04545C10.45 2.92629 10.3867 2.75006 10.2341 2.59007C10.0816 2.43008 9.9136 2.36364 9.8 2.36364H7.2C7.0864 2.36364 6.91839 2.43008 6.76587 2.59007ZM5.25 3.04545V3.72729H3.95029H2.65C2.29101 3.72729 2 4.03256 2 4.40911C2 4.78567 2.29101 5.09093 2.65 5.09093H3.30029V13.9546C3.30029 14.5172 3.56195 15.0228 3.89692 15.3742C4.2319 15.7256 4.71389 16 5.25029 16H11.7503C12.2867 16 12.7687 15.7256 13.1037 15.3742C13.4386 15.0228 13.7003 14.5172 13.7003 13.9546V5.09093H14.35C14.709 5.09093 15 4.78567 15 4.40911C15 4.03256 14.709 3.72729 14.35 3.72729H13.0503H11.75V3.04545C11.75 2.4828 11.4883 1.97721 11.1534 1.62584C10.8184 1.27446 10.3364 1 9.8 1H7.2C6.6636 1 6.18161 1.27446 5.84663 1.62584C5.51166 1.97721 5.25 2.4828 5.25 3.04545Z" fill="#C0C5CB"/>
</svg>
