<svg width="17" height="17" viewBox="0 0 17 17" fill="none" xmlns="http://www.w3.org/2000/svg">
<path fill-rule="evenodd" clip-rule="evenodd" d="M3.25 3.4C2.83579 3.4 2.5 3.7134 2.5 4.1V13.9C2.5 14.2866 2.83579 14.6 3.25 14.6H13.75C14.1642 14.6 14.5 14.2866 14.5 13.9V4.1C14.5 3.7134 14.1642 3.4 13.75 3.4H3.25ZM1 4.1C1 2.9402 2.00736 2 3.25 2H13.75C14.9926 2 16 2.9402 16 4.1V13.9C16 15.0598 14.9926 16 13.75 16H3.25C2.00736 16 1 15.0598 1 13.9V4.1Z" fill="#FF0065"/>
<path fill-rule="evenodd" clip-rule="evenodd" d="M11.1783 1C11.4742 1 11.714 1.22386 11.714 1.5V3.5C11.714 3.77614 11.4742 4 11.1783 4C10.8824 4 10.6426 3.77614 10.6426 3.5V1.5C10.6426 1.22386 10.8824 1 11.1783 1Z" fill="#FF0065"/>
<path fill-rule="evenodd" clip-rule="evenodd" d="M1 6.30001C1 5.91341 1.33579 3.00003 1.75 3.00003H15.25C15.6642 3.00003 16 5.91341 16 6.30001C16 6.68661 15.6642 7.00001 15.25 7.00001H1.75C1.33579 7.00001 1 6.68661 1 6.30001Z" fill="#FF0065"/>
<path fill-rule="evenodd" clip-rule="evenodd" d="M5.82087 1C6.11674 1 6.35658 1.22386 6.35658 1.5V3.5C6.35658 3.77614 6.11674 4 5.82087 4C5.525 4 5.28516 3.77614 5.28516 3.5V1.5C5.28516 1.22386 5.525 1 5.82087 1Z" fill="#FF0065"/>
<path fill-rule="evenodd" clip-rule="evenodd" d="M7 9.09999C7 8.71339 7.33579 8.39999 7.75 8.39999H12.25C12.6642 8.39999 13 8.71339 13 9.09999C13 9.48659 12.6642 9.79999 12.25 9.79999H7.75C7.33579 9.79999 7 9.48659 7 9.09999Z" fill="#FF0065"/>
<path fill-rule="evenodd" clip-rule="evenodd" d="M4 11.9C4 11.5134 4.33579 11.2 4.75 11.2H9.25C9.66421 11.2 10 11.5134 10 11.9C10 12.2866 9.66421 12.6 9.25 12.6H4.75C4.33579 12.6 4 12.2866 4 11.9Z" fill="#FF0065"/>
<path fill-rule="evenodd" clip-rule="evenodd" d="M4 9.09999C4 8.71339 4.33579 8.39999 4.75 8.39999H4.7575C5.17171 8.39999 5.5075 8.71339 5.5075 9.09999C5.5075 9.48659 5.17171 9.79999 4.7575 9.79999H4.75C4.33579 9.79999 4 9.48659 4 9.09999Z" fill="#FF0065"/>
<path fill-rule="evenodd" clip-rule="evenodd" d="M11.5 11.9C11.5 11.5134 11.8358 11.2 12.25 11.2H12.2575C12.6717 11.2 13.0075 11.5134 13.0075 11.9C13.0075 12.2866 12.6717 12.6 12.2575 12.6H12.25C11.8358 12.6 11.5 12.2866 11.5 11.9Z" fill="#FF0065"/>
</svg>
